# xmcd CD database file
#
# Track frame offsets:
#	150
#	37327
#	74725
#	123029
#	159557
#	203535
#
# Disc length: 3481 seconds
#
# Revision: 0
# Processed by: cddbd v1.5.1PL2 Copyright (c) Steve Scherf et al.
# Submitted via: CDex 1.51
#
DISCID=520d9706
DTITLE=Rick Keller - One Take
DYEAR=1997
DGENRE=Jazz
TTITLE0=The time will tell
TTITLE1=Walz for Wayne
TTITLE2=Movin' right along
TTITLE3=Spring
TTITLE4=Not meant to be
TTITLE5=Tranes' way
EXTD=YEAR: 1997
EXTT0=
EXTT1=
EXTT2=
EXTT3=
EXTT4=
EXTT5=
PLAYORDER=
